<svg xmlns="http://www.w3.org/2000/svg" xmlns:xlink="http://www.w3.org/1999/xlink" aria-hidden="true" focusable="false" width="1em" height="1em" style="-ms-transform: rotate(360deg); -webkit-transform: rotate(360deg); transform: rotate(360deg);" preserveAspectRatio="xMidYMid meet" viewBox="0 0 36 36"><path class="clr-i-outline clr-i-outline-path-1" d="M19.61 18l4.86-4.86a1 1 0 0 0-1.41-1.41l-4.86 4.81l-4.89-4.89a1 1 0 0 0-1.41 1.41L16.78 18L12 22.72a1 1 0 1 0 1.41 1.41l4.77-4.77l4.74 4.74a1 1 0 0 0 1.41-1.41z" fill="#626262"/><path class="clr-i-outline clr-i-outline-path-2" d="M18 34a16 16 0 1 1 16-16a16 16 0 0 1-16 16zm0-30a14 14 0 1 0 14 14A14 14 0 0 0 18 4z" fill="#626262"/></svg>