<svg xmlns="http://www.w3.org/2000/svg" xmlns:xlink="http://www.w3.org/1999/xlink" aria-hidden="true" focusable="false" width="1em" height="1em" style="-ms-transform: rotate(360deg); -webkit-transform: rotate(360deg); transform: rotate(360deg);" preserveAspectRatio="xMidYMid meet" viewBox="0 0 36 36"><path class="clr-i-solid clr-i-solid-path-1" d="M18 2a16 16 0 1 0 16 16A16 16 0 0 0 18 2zm8 22.1a1.4 1.4 0 0 1-2 2l-6-6l-6 6.02a1.4 1.4 0 1 1-2-2l6-6.04l-6.17-6.22a1.4 1.4 0 1 1 2-2L18 16.1l6.17-6.17a1.4 1.4 0 1 1 2 2L20 18.08z" fill="#626262"/></svg>